<svg width="1226" height="826" viewBox="0 0 1226 826" fill="none" xmlns="http://www.w3.org/2000/svg">

<defs>
    <style type="text/css">
    <![CDATA[


        #svg-background{
            animation: move 3s infinite linear;
        }

        #logo-back path, #svg-logo path{
            transform-origin: center;
            transform-box: fill-box;
            animation: scale 3s infinite linear;
        }

        
        #svg-hand{
            transform-origin: bottom;
            transform-box: fill-box;
            animation: rotate 1s infinite linear;
        }
      
        #svg-plant{
            transform-origin: bottom;
            transform-box: fill-box;
            animation: rotate 3s infinite;
        }
        
        @keyframes move {
        0%{
            transform: translate(0,0);
        }
        25%{
            transform: translate(-10px,-10px);
        }
        50%{
            transform: translate(10px,0);
        }
        75%{
            transform: translate(10px,10px);
        }
        100% {
            transform: translate(0,0);
        }
        }

        @keyframes rotate{
            0%{
                transform: rotate(2deg);
            }
            50%{
                transform: rotate(0deg);
            }
            100%{
                transform: rotate(2deg);
            }
        }
        @keyframes scale{
            0%{
                transform: scale(1.2);
            }
            50%{
                opacity: 0.1;
                transform: scale(1);
            }
            100%{
                transform: scale(1.2);
            }
        }
        



    ]]>
    </style>
  </defs>




<g id="body">
<g id="schedule">
<g clip-path="url(#clip0)">
<path id="svg-background" opacity="0.1" d="M659.68 141.3C590.09 141.19 523.04 119.57 458.89 95.51C394.74 71.45 331.1 44.62 262.77 33.11C218.77 25.71 168.87 26.21 134.6 52.49C101.63 77.78 92.19 119.75 87.67 158.57C84.28 187.75 82.76 218.4 95.84 245.14C104.93 263.71 120.43 279.03 131.4 296.74C169.57 358.34 146.92 436.74 110.16 499.56C92.91 528.97 72.7 557.2 59.69 588.36C46.68 619.52 41.41 654.88 54.85 685.71C68.19 716.28 98.19 738.57 130.28 753.78C195.57 784.78 271.44 791.6 345.28 794.37C508.76 800.51 672.49 789.57 835.79 778.57C896.22 774.51 956.92 770.41 1016.08 758.28C1048.93 751.55 1082.74 741.52 1105.98 719.36C1135.48 691.24 1141.4 645.19 1119.79 612.02C1083.53 556.33 988.37 545.57 962.27 485.39C947.9 452.26 960.1 414.39 978.13 382.53C1016.82 314.24 1083.57 253.16 1084.48 176.64C1085.1 124.08 1050.15 72.71 998.11 49.71C943.55 25.57 869.31 31.51 831.28 75.99C792.12 121.79 721.13 141.4 659.68 141.3Z" fill="#1976D2"/>
<g id="svg-plant">
<path id="Vector" d="M1017.99 661C1017.99 661 1007.88 669.926 1033.22 676C1033.22 676 1048.47 672.314 1033.22 663.3L1017.99 661Z" fill="#1976D2"/>
<path id="Vector_2" d="M1076.25 586.917C1076.25 586.917 1075.34 574.797 1048 578.817C1048 578.817 1047.87 586.637 1057.47 590.337C1067.07 594.037 1071.46 590.917 1076.25 586.917Z" fill="#1976D2"/>
<path id="Vector_3" d="M1016.01 634C1016.01 634 1027.58 637.72 1017.27 663.37C1017.27 663.37 1009.64 661.66 1008.27 651.46C1006.9 641.26 1011 637.72 1016.01 634Z" fill="#1976D2"/>
<path id="Vector_4" d="M1065.43 609.028C1065.43 609.028 1066.99 589.098 1039.04 591.148C1039.04 591.148 1037.04 609.148 1060.49 613.818L1065.43 609.028Z" fill="#1976D2"/>
<path id="Vector_5" d="M1043.77 635.103C1043.77 635.103 1039.93 612.523 1012 619.253C1012 619.253 1011.89 638.783 1039.2 640.493L1043.77 635.103Z" fill="#1976D2"/>
<path id="Vector_6" d="M1006.09 669.642C1006.09 669.642 999.68 647.642 972 654.232C972 654.232 978.58 674.012 1004.25 673.712L1006.09 669.642Z" fill="#1976D2"/>
<path id="Vector_7" d="M1088 561.275C1088 561.275 1081.73 538.445 1055 545.275C1055 545.275 1063.92 566.965 1086.24 565.145L1088 561.275Z" fill="#1976D2"/>
<path id="Vector_8" d="M1096.71 535.623C1096.71 535.623 1091.89 507.743 1067 513.883C1067 513.883 1074.24 539.283 1094.9 539.683L1096.71 535.623Z" fill="#1976D2"/>
<path id="Vector_9" d="M1103 508.481C1103 508.481 1097.22 480.331 1072 488.481C1072 488.481 1081.89 515.071 1101.22 512.321L1103 508.481Z" fill="#1976D2"/>
<path id="Vector_10" d="M1106.68 481.395C1106.68 481.395 1097.49 453.255 1078 454.015C1078 454.015 1087.4 483.745 1105 487.015L1106.68 481.395Z" fill="#1976D2"/>
<path id="Vector_11" d="M1108.49 460.44C1108.49 460.44 1098.49 426.56 1082.63 429.17C1082.63 429.17 1089.55 455.07 1107.93 465.71L1108.49 460.44Z" fill="#1976D2"/>
<path id="Vector_12" d="M1110.19 432.16C1110.19 432.16 1100.82 403.92 1085.19 402.8C1085.19 402.8 1091.57 430.58 1109.87 439.49L1110.19 432.16Z" fill="#1976D2"/>
<path id="Vector_13" d="M1112.12 405.83C1112.12 405.83 1100.43 377.56 1090.12 376.93C1090.12 376.93 1095.19 404.75 1111.12 410.47L1112.12 405.83Z" fill="#1976D2"/>
<path id="Vector_14" d="M1113.41 381.31C1113.41 381.31 1106.19 350.57 1095.89 348.07C1095.89 348.07 1097.31 373.17 1112.38 383.6L1113.41 381.31Z" fill="#1976D2"/>
<path id="Vector_15" d="M1117.3 349.22C1117.3 349.22 1109.74 324.76 1101.37 321.03C1101.37 321.03 1103.03 349.87 1115.37 355.21L1117.3 349.22Z" fill="#1976D2"/>
<path id="Vector_16" d="M1120.53 328.15L1122.06 285.01C1122.06 285.01 1106.44 317.56 1119.38 335.76L1120.53 328.15Z" fill="#1976D2"/>
<path id="Vector_17" d="M1132.62 291.76C1132.62 291.76 1143.88 260.25 1146.62 258.5C1146.62 258.5 1124.52 278.93 1126.68 305.23L1132.62 291.76Z" fill="#1976D2"/>
<path id="Vector_18" d="M1044.53 637.064C1044.53 637.064 1064.35 634.464 1063.75 662.484C1063.75 662.484 1045.84 665.394 1040 642.234L1044.53 637.064Z" fill="#1976D2"/>
<path id="Vector_19" d="M1066.57 608C1066.57 608 1089.48 607.92 1087.57 636.6C1087.57 636.6 1068.35 640.03 1062 613.41L1066.57 608Z" fill="#1976D2"/>
<path id="Vector_20" d="M1076.83 584.859C1076.83 584.859 1097.62 575.109 1110.93 600.269C1110.93 600.269 1091.72 608.399 1075 588.919L1076.83 584.859Z" fill="#1976D2"/>
<path id="Vector_21" d="M1090 560.13C1090 560.13 1111.28 549.75 1123.78 574.34C1123.78 574.34 1101.61 581.98 1088.24 564.02L1090 560.13Z" fill="#1976D2"/>
<path id="Vector_22" d="M1098 535.28C1098 535.28 1118.49 515.71 1134.84 535.51C1134.84 535.51 1113.91 551.61 1097.05 539.64L1098 535.28Z" fill="#1976D2"/>
<path id="Vector_23" d="M1104.73 504.622C1104.73 504.622 1125.35 484.622 1141.57 505.542C1141.57 505.542 1118.43 521.972 1104 508.822L1104.73 504.622Z" fill="#1976D2"/>
<path id="Vector_24" d="M1107 481.225C1107 481.225 1122.88 456.225 1141.57 461.815C1141.57 461.815 1125.1 488.285 1107.18 487.105L1107 481.225Z" fill="#1976D2"/>
<path id="Vector_25" d="M1108.02 460.28C1108.02 460.28 1124.02 428.79 1139.15 434.28C1139.15 434.28 1127.62 458.48 1107.61 465.59L1108.02 460.28Z" fill="#1976D2"/>
<path id="Vector_26" d="M1109.12 430.57C1109.12 430.57 1125.57 405.79 1140.98 408.81C1140.98 408.81 1127.54 433.94 1107.53 437.74L1109.12 430.57Z" fill="#1976D2"/>
<path id="Vector_27" d="M1110.38 405.27C1110.38 405.27 1123.12 377.47 1133.49 377.22C1133.49 377.22 1127.37 404.84 1111.23 409.95L1110.38 405.27Z" fill="#1976D2"/>
<path id="Vector_28" d="M1112.9 380.7C1112.9 380.7 1127.07 352.54 1137.72 352.49C1137.72 352.49 1130.47 376.56 1113.38 383.18L1112.9 380.7Z" fill="#1976D2"/>
<path id="Vector_29" d="M1115.04 350.95C1115.04 350.95 1125.64 327.65 1134.41 325.01C1134.41 325.01 1129.11 353.41 1116.2 357.13L1115.04 350.95Z" fill="#1976D2"/>
<path id="Vector_30" d="M1121.8 327.33L1145.48 291.25C1145.48 291.25 1139.42 326.84 1118.34 334.25L1121.8 327.33Z" fill="#1976D2"/>
<path id="Vector_31" d="M1141.48 290.08C1141.48 290.08 1169.01 271.08 1170 268C1170 268 1156 294.62 1130 299.32L1141.48 290.08Z" fill="#1976D2"/>
<path id="Vector_32" d="M1137.76 288.35C1137.76 288.35 1169.37 257.96 1177.44 258C1177.44 258 1151.37 259.19 1137 286.73L1137.76 288.35Z" fill="#1976D2"/>
<path id="Vector_33" d="M1115.34 363.46L1116.49 363.61C1122.43 317.11 1131.09 289.61 1140.88 286.23L1140.5 285.14C1130.13 288.74 1121.43 315.82 1115.34 363.46Z" fill="#444053"/>
<path id="Vector_34" d="M1106.61 476.63L1108.35 476.78C1108.71 472.44 1108.99 467.99 1109.18 463.57C1110.84 425.08 1113.42 389.75 1116.8 363.26L1115.8 362.01C1112.41 388.55 1109.11 424.96 1107.45 463.49C1107.25 467.89 1106.97 472.31 1106.61 476.63Z" fill="#444053"/>
<path id="Vector_35" d="M972.93 694.88C973.24 694.737 1003.87 680.812 1035.66 647.571C1054.28 628.107 1069.76 605.758 1081.51 581.356C1096.2 550.866 1105.16 513.398 1108.17 477L1106.36 477.866C1099.61 559.556 1063.1 615.391 1034.06 645.789C1002.58 678.734 972.3 692.527 972 692.649L972.93 694.88Z" fill="#444053"/>
</g>
<path id="Vector_36" d="M1095.71 77.88H134.83C132.56 77.88 130.382 78.7819 128.777 80.3872C127.172 81.9925 126.27 84.1698 126.27 86.44V111.38H1104.27V86.44C1104.27 84.1698 1103.37 81.9925 1101.76 80.3872C1100.16 78.7819 1097.98 77.88 1095.71 77.88V77.88Z" fill="#3F3D56"/>
<path id="Vector_37" d="M126.27 111.38V672.62C126.27 677.198 128.088 681.588 131.325 684.825C134.562 688.062 138.952 689.88 143.53 689.88H1087.01C1091.59 689.88 1095.98 688.062 1099.21 684.825C1102.45 681.588 1104.27 677.198 1104.27 672.62V111.38H126.27Z" fill="white"/>
<path id="Vector_38" opacity="0.8" d="M141.77 98.37C143.979 98.37 145.77 96.5791 145.77 94.37C145.77 92.1609 143.979 90.37 141.77 90.37C139.561 90.37 137.77 92.1609 137.77 94.37C137.77 96.5791 139.561 98.37 141.77 98.37Z" fill="#FA5959"/>
<path id="Vector_39" opacity="0.8" d="M152.77 98.37C154.979 98.37 156.77 96.5791 156.77 94.37C156.77 92.1609 154.979 90.37 152.77 90.37C150.561 90.37 148.77 92.1609 148.77 94.37C148.77 96.5791 150.561 98.37 152.77 98.37Z" fill="#FED253"/>
<path id="Vector_40" opacity="0.8" d="M163.77 98.37C165.979 98.37 167.77 96.5791 167.77 94.37C167.77 92.1609 165.979 90.37 163.77 90.37C161.561 90.37 159.77 92.1609 159.77 94.37C159.77 96.5791 161.561 98.37 163.77 98.37Z" fill="#8CCF4D"/>
<g id="Group" opacity="0.3">
<path id="Vector_41" opacity="0.3" d="M1067.77 145.37H163.77V655.37H1067.77V145.37Z" stroke="#3F3D56" stroke-miterlimit="10"/>
<path id="Vector_42" opacity="0.3" d="M949.77 145.37H281.77V655.37H949.77V145.37Z" stroke="#3F3D56" stroke-miterlimit="10"/>
<path id="Vector_43" opacity="0.3" d="M831.77 145.37H399.77V655.37H831.77V145.37Z" stroke="#3F3D56" stroke-miterlimit="10"/>
<path id="Vector_44" opacity="0.3" d="M713.77 145.37H517.77V655.37H713.77V145.37Z" stroke="#3F3D56" stroke-miterlimit="10"/>
<path id="Vector_45" opacity="0.3" d="M615.77 145.37V655.37" stroke="#3F3D56" stroke-miterlimit="10"/>
<path id="Vector_46" opacity="0.3" d="M1067.77 219.37H163.77V581.37H1067.77V219.37Z" stroke="#3F3D56" stroke-miterlimit="10"/>
<path id="Vector_47" opacity="0.3" d="M1067.77 292.37H163.77V508.37H1067.77V292.37Z" stroke="#3F3D56" stroke-miterlimit="10"/>
<path id="Vector_48" opacity="0.3" d="M1067.77 365.37H163.77V435.37H1067.77V365.37Z" stroke="#3F3D56" stroke-miterlimit="10"/>
</g>
<path id="Vector_49" opacity="0.1" d="M376.27 173.87H305.27V199.87H376.27V173.87Z" fill="#3F3D56"/>
<path id="Vector_50" opacity="0.1" d="M247.27 244.87H194.27V270.87H247.27V244.87Z" fill="#3F3D56"/>
<path id="Vector_51" opacity="0.1" d="M491.27 173.87H420.27V199.87H491.27V173.87Z" fill="#3F3D56"/>
<path id="Vector_52" opacity="0.1" d="M599.27 173.87H528.27V199.87H599.27V173.87Z" fill="#3F3D56"/>
<path id="Vector_53" opacity="0.1" d="M699.27 173.87H628.27V199.87H699.27V173.87Z" fill="#3F3D56"/>
<path id="Vector_54" opacity="0.1" d="M811.27 173.87H740.27V199.87H811.27V173.87Z" fill="#3F3D56"/>
<path id="Vector_55" opacity="0.1" d="M925.27 175.87H854.27V201.87H925.27V175.87Z" fill="#3F3D56"/>
<path id="Vector_56" opacity="0.1" d="M1046.27 173.87H975.27V199.87H1046.27V173.87Z" fill="#3F3D56"/>
<path id="Vector_57" d="M491.13 315.59H446.59V358.71H491.13V315.59Z" fill="#7CFCFF"/>
<path id="Vector_58" d="M769.17 457.91H724.63V501.03H769.17V457.91Z" fill="#FFFFA5"/>
<path id="Vector_59" d="M362.9 236H318.36V279.12H362.9V236Z" fill="#FFFFA5"/>
<path id="Vector_60" d="M823.13 457.59H778.59V500.71H823.13V457.59Z" fill="#7CFCFF"/>
<path id="Vector_61" d="M904.13 233.59H859.59V276.71H904.13V233.59Z" fill="#7CFCFF"/>
<path id="Vector_62" d="M786.56 442H742.02V485.12H786.56V442Z" fill="#FF69B4"/>
<path id="Vector_63" opacity="0.1" d="M247.27 314.87H194.27V340.87H247.27V314.87Z" fill="#3F3D56"/>
<path id="Vector_64" opacity="0.1" d="M247.27 387.87H194.27V413.87H247.27V387.87Z" fill="#3F3D56"/>
<path id="Vector_65" opacity="0.1" d="M247.27 460.87H194.27V486.87H247.27V460.87Z" fill="#3F3D56"/>
<path id="Vector_66" opacity="0.1" d="M247.27 533.87H194.27V559.87H247.27V533.87Z" fill="#3F3D56"/>
<path id="Vector_67" opacity="0.1" d="M247.27 606.87H194.27V632.87H247.27V606.87Z" fill="#3F3D56"/>
<path id="Vector_68" d="M212.3 301.91C204.3 303.2 195.4 306.28 192.3 313.78C189.99 319.45 191.78 325.83 192.37 331.92C192.594 333.528 192.536 335.162 192.2 336.75C191.54 339.32 189.72 341.4 187.96 343.39C185.515 345.917 183.462 348.795 181.87 351.93C180.43 355.13 179.97 358.93 181.46 362.13C181.967 362.952 182.307 363.866 182.46 364.82C182.56 366.9 180.38 368.22 178.78 369.55C172.78 374.55 173.03 383.55 172.98 391.38C172.888 407.346 169.343 423.103 162.59 437.57C165.121 438.852 167.98 439.341 170.793 438.974C173.606 438.606 176.243 437.399 178.36 435.51C177.528 439.065 176.329 442.524 174.78 445.83C179.86 448.29 185.99 444.25 188.54 439.21C191.09 434.17 191.39 428.31 193.2 422.96C195.01 417.61 198.2 412.96 199.61 407.57C200.06 405.79 200.34 403.89 201.43 402.41C202.348 401.339 203.428 400.418 204.63 399.68C209.905 395.873 213.859 390.513 215.94 384.35C222.16 385.72 228.51 387.1 234.85 386.52C241.19 385.94 247.67 383.07 251.02 377.65C252.5 375.26 253.3 372.51 254.67 370.05C256.35 367.05 258.82 364.57 260.67 361.7C265.13 354.87 265.95 346.1 264.14 338.14C262.33 330.18 258.14 322.98 253.14 316.53C243.56 304.09 227.46 299.48 212.3 301.91Z" fill="#303D5C"/>
<path id="Vector_69" d="M161.81 401.93C161.36 404.79 160.81 407.65 160.17 410.48C159.444 413.752 158.523 416.978 157.41 420.14C156.756 421.525 156.457 423.051 156.54 424.58C156.737 425.517 157.1 426.41 157.61 427.22C161.26 433.71 166.2 439.98 166.61 447.42C166.71 449.27 166.61 451.28 167.61 452.81C170.43 446.737 173.543 440.817 176.95 435.05C180.51 429.05 184.47 422.91 185.49 415.97C185.897 412.713 185.853 409.415 185.36 406.17C184.89 402.52 184.07 398.78 181.85 395.86C179.43 392.7 172.85 387.93 168.52 388.92C163.49 390.07 162.45 397.86 161.81 401.93Z" fill="#1976D2"/>
<path id="Vector_70" d="M290.7 436.91C295.48 434.96 300.36 432.91 304.15 429.39C306.465 427.095 308.517 424.549 310.27 421.8L321.52 405.57C324.18 401.71 326.93 397.66 327.52 393.01C334.108 386.054 338.078 377.027 338.75 367.47C338.83 366.52 339.15 365.27 340.1 365.24C340.52 365.272 340.913 365.461 341.2 365.77C341.935 366.447 342.5 367.288 342.847 368.225C343.195 369.162 343.316 370.167 343.2 371.16C344.84 371.08 346.62 371.04 347.96 372C349.3 372.96 349.66 375.34 348.22 376.13C348.702 376.276 349.114 376.594 349.377 377.024C349.641 377.453 349.738 377.964 349.65 378.46C351.37 378.12 353.26 377.84 354.78 378.7C356.3 379.56 356.88 382.08 355.41 383.02C356.267 383.351 357.001 383.94 357.511 384.704C358.021 385.468 358.283 386.371 358.26 387.29C358.168 389.124 357.484 390.878 356.31 392.29C351.99 398.09 344.37 400.43 339.36 405.65C337.714 407.475 336.238 409.447 334.95 411.54L320.44 433.62C315.83 440.62 311.1 447.79 304.52 453.01C302.816 454.507 300.785 455.586 298.59 456.16C297.491 456.437 296.338 456.424 295.246 456.12C294.153 455.817 293.159 455.234 292.36 454.43C290.91 452.78 290.69 450.43 290.55 448.22C290.31 444.5 290.95 440.66 290.7 436.91Z" fill="#EE8E9E"/>
<path id="Vector_71" d="M242.11 743.57C242.689 744.143 243.208 744.773 243.66 745.45C244.145 746.249 244.454 747.142 244.567 748.07C244.679 748.998 244.591 749.939 244.31 750.83C243.73 752.623 242.47 754.117 240.8 754.99C240.41 755.166 240.038 755.38 239.69 755.63C239.477 755.839 239.25 756.033 239.01 756.21C238.543 756.444 238.02 756.541 237.5 756.49C233.615 756.244 229.769 755.573 226.03 754.49C224.31 754.06 222.49 753.57 221.29 752.27C220.548 751.337 219.998 750.266 219.67 749.12L218.31 745.33C217.417 743.039 216.718 740.678 216.22 738.27C215.724 735.851 215.855 733.345 216.6 730.99C216.937 731.412 217.114 731.94 217.1 732.48C217.5 735.031 218.501 737.451 220.02 739.54C220.337 740.063 220.721 740.544 221.16 740.97C222.154 741.733 223.329 742.226 224.57 742.4C226.959 742.919 229.388 743.23 231.83 743.33C232.168 743.376 232.512 743.335 232.83 743.21C233.222 742.992 233.518 742.636 233.66 742.21C234.01 741.241 234.01 740.179 233.66 739.21C233 737.36 231.19 736.15 230.33 734.39C229.68 733.09 230.57 731.66 231.89 732.76C233.075 733.873 234.194 735.055 235.24 736.3L242.11 743.57Z" fill="#303D5C"/>
<path id="Vector_72" d="M229.54 717.3C229.15 723.41 228.88 730.01 232.22 735.14C233.43 736.98 235.04 738.53 236.41 740.26C237.196 741.125 237.716 742.198 237.91 743.35C238.1 745.59 236 747.51 233.79 747.93C231.58 748.35 229.32 747.65 227.18 746.93C225.155 746.426 223.249 745.529 221.57 744.29C218.66 741.83 217.89 737.73 217.31 733.97L215.95 725.23C214.92 720.812 215.355 716.179 217.19 712.03L219.43 705.47C219.577 704.832 219.928 704.26 220.43 703.84C220.951 703.553 221.55 703.441 222.14 703.52C224.28 703.63 229.69 704.41 230.73 706.68C231.61 708.65 229.69 714.95 229.54 717.3Z" fill="#EE8E9E"/>
<path id="Vector_73" opacity="0.05" d="M229.54 717.3C229.15 723.41 228.88 730.01 232.22 735.14C233.43 736.98 235.04 738.53 236.41 740.26C237.196 741.125 237.716 742.198 237.91 743.35C238.1 745.59 236 747.51 233.79 747.93C231.58 748.35 229.32 747.65 227.18 746.93C225.155 746.426 223.249 745.529 221.57 744.29C218.66 741.83 217.89 737.73 217.31 733.97L215.95 725.23C214.92 720.812 215.355 716.179 217.19 712.03L219.43 705.47C219.577 704.832 219.928 704.26 220.43 703.84C220.951 703.553 221.55 703.441 222.14 703.52C224.28 703.63 229.69 704.41 230.73 706.68C231.61 708.65 229.69 714.95 229.54 717.3Z" fill="black"/>
<path id="Vector_74" d="M277.61 536.19C277.614 536.247 277.614 536.303 277.61 536.36C277.483 537.225 277.205 538.061 276.79 538.83C274.954 542.843 273.883 547.164 273.63 551.57C273.641 552.659 273.493 553.744 273.19 554.79C272.741 555.787 272.192 556.735 271.55 557.62C269.6 560.79 269.15 564.62 268.5 568.25C267.662 572.995 266.417 577.659 264.78 582.19C262.55 588.37 259.55 594.69 260.57 601.19C260.951 602.718 261.146 604.286 261.15 605.86C260.865 607.6 260.243 609.268 259.32 610.77C258.573 612.25 257.907 613.767 257.32 615.32C256.67 616.98 256.09 618.68 255.58 620.4C254.98 622.49 254.58 624.97 255.96 626.65C256.389 627.061 256.768 627.521 257.09 628.02C257.35 628.785 257.35 629.615 257.09 630.38C256.297 633.713 255.45 637.047 254.55 640.38C253.85 642.98 253.11 645.56 252.35 648.14C246.73 667.01 240.35 685.69 236.59 705.02C236.05 707.8 232.48 709.79 229.72 710.4C228.33 710.697 226.89 710.661 225.517 710.294C224.143 709.927 222.877 709.24 221.82 708.29C221.63 708.12 221.45 707.93 221.28 707.75C218.38 704.63 217.95 699.84 218.17 695.52C219.17 675.63 229.17 657.42 233.93 638.09C235.652 631.101 236.69 623.96 237.03 616.77C238.14 592.77 238.59 567.39 231.8 544.32C230.39 539.52 228.72 534.1 231.26 529.8C232.86 527.08 235.83 525.47 238.77 524.31C244.766 521.973 251.168 520.858 257.601 521.03C264.034 521.202 270.367 522.657 276.23 525.31C276.24 525.791 276.22 526.272 276.17 526.75C275.915 528.986 276.175 531.25 276.93 533.37C277.318 534.264 277.548 535.218 277.61 536.19Z" fill="#303D5C"/>
<path id="Vector_75" d="M195.39 723.45L194.12 728.07C193.444 730.849 192.541 733.568 191.42 736.2C190.463 737.967 189.66 739.814 189.02 741.72C188.664 743.273 188.526 744.869 188.61 746.46C188.584 747.982 188.803 749.498 189.26 750.95C189.859 752.382 190.75 753.673 191.876 754.74C193.002 755.808 194.338 756.629 195.8 757.15C198.729 758.18 201.797 758.757 204.9 758.86C205.695 758.97 206.502 758.95 207.29 758.8C208.134 758.557 208.92 758.145 209.6 757.59C213.82 754.5 215.99 748.8 216.37 743.59C216.261 742.375 216.023 741.175 215.66 740.01C215.33 739.57 212.14 741.37 213.51 742.88C215.51 745.1 209.62 743.95 206.62 743.76C205.302 743.647 203.995 743.433 202.71 743.12L197.85 742.12C196.26 741.78 194.43 741.23 193.85 739.71C193.27 738.19 194.51 736.37 195.47 734.89C198.01 730.96 198.67 726.15 199.26 721.51C199.37 720.6 200.51 714.69 198.16 716.51C197.353 717.37 196.791 718.43 196.53 719.58C196.1 720.83 195.74 722.14 195.39 723.45Z" fill="#303D5C"/>
<path id="Vector_76" opacity="0.05" d="M255.91 626.66C254.53 624.98 254.91 622.5 255.54 620.41C255.76 619.63 256.01 618.86 256.27 618.09L237.19 611.63C237.12 613.35 237.04 615.05 236.96 616.75C236.627 623.944 235.592 631.088 233.87 638.08C229.1 657.4 219.09 675.61 218.11 695.49C217.88 700.07 218.37 705.19 221.76 708.27C222.815 709.221 224.079 709.908 225.451 710.277C226.822 710.645 228.261 710.684 229.65 710.39C232.42 709.78 235.98 707.78 236.53 705C240.31 685.67 246.66 667 252.29 648.11C254.043 642.25 255.623 636.343 257.03 630.39C257.29 629.628 257.29 628.802 257.03 628.04C256.717 627.534 256.34 627.071 255.91 626.66Z" fill="black"/>
<path id="Vector_77" d="M203.19 702.49C201.68 705.09 199.38 707.39 199.03 710.37C198.82 712.16 199.37 713.96 199.36 715.77C199.286 717.268 199.021 718.75 198.57 720.18C196.71 726.893 194.57 733.513 192.15 740.04C191.752 740.882 191.577 741.811 191.64 742.74C191.88 744.27 193.37 745.28 194.79 745.89C199.34 747.83 204.46 747.7 209.4 747.5C210.837 747.558 212.261 747.212 213.51 746.5C215.28 745.29 215.72 742.9 215.83 740.76C216.17 734.56 215.12 728.33 215.83 722.17C216.08 719.92 216.55 717.71 216.9 715.48C217.39 712.38 217.64 709.12 216.62 706.15C215.775 704.018 214.594 702.036 213.12 700.28C211.82 698.378 210.175 696.736 208.27 695.44C207.69 695.1 206.04 694.04 205.45 694.7C205.15 695.04 205.28 695.95 205.24 696.37C205.162 697.016 205.049 697.657 204.9 698.29C204.535 699.765 203.959 701.179 203.19 702.49V702.49Z" fill="#EE8E9E"/>
<path id="Vector_78" opacity="0.05" d="M239.85 543.93C238.96 545.14 239.14 546.82 239.5 548.28C240.13 550.92 241.19 553.45 242.05 556.02C243.457 560.635 244.553 565.339 245.33 570.1C246.13 574.4 247.83 579.19 247.14 583.52C252.356 593.447 255.785 604.215 257.27 615.33C257.66 618.18 251.33 621.86 251.45 624.73C251.69 630.45 256.25 630.91 252.89 635.47C252.72 635.7 254.15 640.81 253.96 641.03C252.59 642.68 250.85 644.03 249.38 645.54C247.484 647.688 245.862 650.063 244.55 652.61C235.85 668.33 223.27 686.15 227.15 703.7C227.229 704.332 227.112 704.973 226.815 705.536C226.519 706.099 226.056 706.558 225.49 706.85C224.341 707.403 223.084 707.693 221.81 707.7H221.21C218.31 704.58 217.88 699.79 218.1 695.47C219.1 675.58 229.1 657.37 233.86 638.04C235.582 631.051 236.62 623.91 236.96 616.72C238.07 592.72 238.52 567.34 231.73 544.27C230.32 539.47 228.65 534.05 231.19 529.75C232.79 527.03 235.76 525.42 238.7 524.26C244.696 521.923 251.098 520.808 257.531 520.98C263.964 521.152 270.297 522.607 276.16 525.26C276.17 525.741 276.15 526.222 276.1 526.7C275.845 528.936 276.105 531.2 276.86 533.32C277.279 534.228 277.533 535.203 277.61 536.2C277.61 536.2 277.95 532.33 277.94 532.39C270.19 533.5 262.01 538.57 254.19 539.72C250.136 540.153 246.142 541.031 242.28 542.34C241.339 542.636 240.498 543.186 239.85 543.93V543.93Z" fill="black"/>
<path id="Vector_79" d="M185.86 501.35C184.813 504.683 183.89 508.05 183.09 511.45C182.734 512.625 182.638 513.864 182.81 515.08C183.06 516.22 183.81 517.24 183.89 518.4C184.07 520.2 182.82 521.79 182.13 523.46C180.37 527.71 182.25 532.51 184.13 536.72L189.65 549.22L194.19 559.48C195.54 562.53 196.88 565.58 198.19 568.65C204.09 582.657 208.908 597.096 212.6 611.84C212.724 612.508 212.975 613.146 213.34 613.72C214.11 614.72 215.5 615.04 216.62 615.66C220.02 617.52 220.41 623.1 217.3 625.42C217.94 632.93 212.3 640.18 209.41 647.14C202.73 663.14 203.94 681.14 201.65 698.34L204.24 696.82C206.73 697.96 206.64 701.49 207.98 703.88C209.98 707.47 214.9 707.97 218.98 707.7C220.251 707.694 221.505 707.404 222.65 706.85C223.217 706.559 223.68 706.101 223.977 705.537C224.274 704.973 224.391 704.332 224.31 703.7C220.44 686.15 233.01 668.33 241.72 652.61C243.028 650.063 244.647 647.688 246.54 645.54C248.02 643.98 249.75 642.67 251.13 641.03C254.97 636.42 255.46 629.92 255.2 623.92C254.59 609.811 250.868 596.012 244.3 583.51C245 579.19 243.3 574.4 242.5 570.1C241.72 565.34 240.614 560.639 239.19 556.03C238.33 553.44 237.28 550.92 236.64 548.28C236.29 546.82 236.1 545.14 236.99 543.93C237.647 543.183 238.499 542.633 239.45 542.34C243.312 541.031 247.306 540.153 251.36 539.72L278.19 535.87C279.05 530.36 279.93 524.22 279.33 518.68C278.685 513.546 276.548 508.715 273.183 504.784C269.818 500.854 265.373 497.998 260.4 496.57C259.23 496.26 257.86 496.06 256.9 496.8C233.225 492.152 208.749 493.72 185.86 501.35V501.35Z" fill="#303D5C"/>
<path id="Vector_80" d="M210.19 356.44C210.581 359.059 210.173 361.736 209.02 364.12C208.241 365.422 207.223 366.565 206.02 367.49C203.426 369.576 200.41 371.074 197.18 371.88C195.28 372.36 193.18 372.68 191.89 374.19C190.01 376.46 191.27 379.9 192.89 382.38C195.67 386.7 199.53 390.61 204.48 391.96C208.48 393.04 212.65 392.38 216.69 393.08C219.62 393.59 222.38 394.8 225.27 395.49C229.382 396.431 233.665 396.33 237.728 395.197C241.792 394.063 245.508 391.933 248.54 389C244.24 385.7 239.78 382.19 237.54 377.25C235.963 373.715 235.666 369.741 236.7 366.01C237.7 362.35 240.05 358.79 239.33 355.01C238.61 351.23 234.93 348.7 231.33 347.44C228.025 346.436 224.628 345.763 221.19 345.43C219.3 345.17 207.3 342.52 206.55 343.83C206.13 344.57 208.62 348.95 208.93 349.92C209.661 352.022 210.085 354.217 210.19 356.44V356.44Z" fill="#EE8E9E"/>
<path id="Vector_81" d="M225.32 365.2C238.763 365.2 249.66 354.303 249.66 340.86C249.66 327.417 238.763 316.52 225.32 316.52C211.877 316.52 200.98 327.417 200.98 340.86C200.98 354.303 211.877 365.2 225.32 365.2Z" fill="#EE8E9E"/>
<path id="Vector_82" d="M212.46 381.09L228.97 383.87C233.028 384.696 237.159 385.111 241.3 385.11C243.561 384.885 245.839 384.885 248.1 385.11C249.66 385.37 251.15 385.96 252.71 386.16C254.64 386.4 256.6 386.03 258.53 386.28C262.11 386.74 265.06 389.22 267.78 391.59C270.97 394.37 274.4 397.59 274.65 401.84C274.695 402.322 274.626 402.809 274.45 403.26C274.137 403.77 273.717 404.207 273.22 404.54C270.22 407.03 268.49 410.74 266.33 414.02C264.106 417.404 261.335 420.395 258.13 422.87C257.41 422.41 256.04 423.62 256.35 424.42C256.66 425.22 257.45 425.77 257.71 426.58C258.3 428.45 255.99 429.83 255.03 431.58C254.07 433.33 254.56 435.46 254.46 437.45C254.34 439.64 253.46 441.73 253.19 443.9C252.52 448.97 255.03 454.31 253.26 459.1C255.43 458.83 257.39 460.7 258 462.79C258.61 464.88 258.22 467.13 257.81 469.27C259.204 470.104 260.343 471.303 261.104 472.738C261.865 474.173 262.22 475.788 262.13 477.41C262.045 477.601 262.004 477.809 262.01 478.019C262.016 478.228 262.069 478.433 262.165 478.62C262.261 478.806 262.398 478.968 262.565 479.094C262.732 479.221 262.925 479.308 263.13 479.35C264.635 479.977 265.921 481.037 266.823 482.396C267.726 483.754 268.205 485.349 268.2 486.98C268.133 487.524 268.184 488.077 268.35 488.6C268.641 489.1 269.05 489.522 269.54 489.83C270.649 490.722 271.543 491.852 272.156 493.136C272.769 494.421 273.085 495.827 273.08 497.25C273.08 499.18 272.28 501.25 270.57 502.12C267.07 503.9 263.32 504.59 259.48 505.42C255.942 506.256 252.359 506.894 248.75 507.33C245.424 507.602 242.086 507.706 238.75 507.64L216.67 507.55C210.46 507.55 204.25 507.55 198.06 507.08C192.28 506.69 186.37 505.97 180.77 507.49C180.07 506.3 181.19 504.93 181.88 503.74C182.671 502.118 183.101 500.344 183.14 498.54L184.54 483.83C184.806 481.807 184.843 479.761 184.65 477.73C184.35 475.56 183.53 473.51 183.11 471.36C182.31 467.24 183.04 462.98 182.85 458.78C182.564 455.059 181.918 451.376 180.92 447.78L176.54 429.78C175.84 426.89 175.47 423.53 174.39 420.78C171.023 412.113 167.493 403.54 163.8 395.06C163.666 394.688 163.615 394.292 163.65 393.898C163.684 393.504 163.804 393.123 164 392.78L167.65 386.24C168.627 384.381 169.743 382.599 170.99 380.91C174.073 377.012 178.438 374.333 183.31 373.35C188.189 372.396 193.247 373.144 197.64 375.47C199.34 376.38 200.92 377.47 202.64 378.37C205.59 379.77 209.19 381.31 212.46 381.09Z" fill="#1976D2"/>
<path id="Vector_83" d="M271.04 397.12L276.79 404.79C277.318 405.442 277.768 406.153 278.13 406.91C278.99 408.91 278.52 411.27 278.98 413.42C279.338 414.796 279.908 416.109 280.67 417.31C282.832 421.111 285.275 424.744 287.98 428.18C289.23 429.925 290.769 431.444 292.53 432.67C293.412 433.28 294.415 433.693 295.471 433.881C296.527 434.069 297.611 434.028 298.65 433.76C297.781 434.098 297.069 434.747 296.65 435.58C294.46 439.92 294.3 445.06 295.23 449.82C295.492 451.454 296.033 453.03 296.83 454.48C297.628 455.943 298.928 457.069 300.49 457.65C300.392 458.375 300.147 459.073 299.769 459.7C299.392 460.327 298.891 460.87 298.297 461.297C297.703 461.724 297.027 462.025 296.313 462.182C295.598 462.339 294.859 462.349 294.14 462.21C293.008 461.871 291.942 461.34 290.99 460.64L281.75 454.64C280.208 453.717 278.767 452.634 277.45 451.41C275.72 449.69 274.52 447.51 272.84 445.74C269.98 442.74 265.78 440.9 263.76 437.26C262.49 434.98 262.27 432.26 261.49 429.8C260.98 428.17 260.23 426.63 259.74 424.99C258.22 419.93 259.32 414.38 261.63 409.63C263.94 404.88 267.62 401.16 271.04 397.12Z" fill="#1976D2"/>
<path id="Vector_84" d="M249.37 326.98C247.117 323.486 244.211 320.461 240.81 318.07C236.26 314.68 231.03 311.86 225.36 311.54C222.989 311.419 220.62 311.804 218.41 312.67C218.3 305.8 216.6 301.22 212.3 301.91C204.3 303.2 195.4 306.28 192.3 313.78C189.99 319.45 191.78 325.83 192.37 331.92C192.594 333.528 192.536 335.162 192.2 336.75C191.54 339.32 189.72 341.4 187.96 343.39C185.515 345.917 183.462 348.795 181.87 351.93C180.43 355.13 179.97 358.93 181.46 362.13C181.967 362.952 182.307 363.866 182.46 364.82C182.56 366.9 180.38 368.22 178.78 369.55C172.78 374.55 173.03 383.55 172.98 391.38C172.888 407.346 169.343 423.103 162.59 437.57C165.121 438.852 167.98 439.341 170.793 438.974C173.606 438.606 176.243 437.399 178.36 435.51C177.528 439.065 176.329 442.524 174.78 445.83C179.86 448.29 185.99 444.25 188.54 439.21C191.09 434.17 191.39 428.31 193.2 422.96C195.01 417.61 198.2 412.96 199.61 407.57C200.06 405.79 200.34 403.89 201.43 402.41C202.348 401.339 203.428 400.418 204.63 399.68C209.87 395.92 202.15 367.43 204.2 361.31C207.2 361.98 212.85 347.31 216.04 332.31C218.265 333.077 220.638 333.313 222.97 333C223.781 332.824 224.613 332.767 225.44 332.83C226.208 332.988 226.94 333.286 227.6 333.71C229.96 335.158 232.428 336.425 234.98 337.5C240.26 339.5 246.06 339.21 251.69 338.93C252.453 334.797 251.624 330.528 249.37 326.98V326.98Z" fill="#303D5C"/>
<path id="Vector_85" opacity="0.1" d="M165.45 437.57C172.224 423.122 175.786 407.377 175.89 391.42C175.94 383.62 175.68 374.56 181.69 369.59C183.29 368.26 185.47 366.94 185.37 364.86C185.213 363.907 184.873 362.994 184.37 362.17C182.88 358.99 183.37 355.17 184.77 351.97C186.363 348.833 188.419 345.954 190.87 343.43C192.62 341.43 194.45 339.36 195.1 336.79C195.435 335.202 195.496 333.568 195.28 331.96C194.68 325.87 192.9 319.49 195.21 313.82C198.21 306.56 206.6 303.45 214.4 302.09C213.722 301.874 213.001 301.826 212.3 301.95C204.3 303.24 195.4 306.32 192.3 313.82C189.99 319.49 191.78 325.87 192.37 331.96C192.594 333.568 192.536 335.202 192.2 336.79C191.54 339.36 189.72 341.44 187.96 343.43C185.515 345.957 183.462 348.835 181.87 351.97C180.43 355.17 179.97 358.97 181.46 362.17C181.967 362.992 182.307 363.906 182.46 364.86C182.56 366.94 180.38 368.26 178.78 369.59C172.78 374.59 173.03 383.59 172.98 391.42C172.882 407.372 169.338 423.115 162.59 437.57C164.969 438.8 167.657 439.304 170.32 439.02C168.618 438.857 166.964 438.364 165.45 437.57V437.57Z" fill="black"/>
<path id="Vector_86" opacity="0.1" d="M177.64 445.79C179.178 442.483 180.368 439.024 181.19 435.47C180.163 436.409 178.996 437.182 177.73 437.76C176.95 440.504 175.946 443.18 174.73 445.76C176.193 446.456 177.839 446.666 179.43 446.36C178.812 446.246 178.21 446.055 177.64 445.79V445.79Z" fill="black"/>
<path id="Vector_87" opacity="0.1" d="M221.27 312.67C222.757 312.091 224.32 311.727 225.91 311.59H225.36C223.982 311.519 222.601 311.623 221.25 311.9C221.26 312.12 221.27 312.39 221.27 312.67Z" fill="black"/>
<path id="Vector_88" opacity="0.1" d="M237.84 337.47C235.291 336.395 232.827 335.128 230.47 333.68C229.807 333.256 229.071 332.957 228.3 332.8C227.544 332.732 226.782 332.779 226.04 332.94C226.582 333.138 227.104 333.385 227.6 333.68C229.96 335.128 232.428 336.395 234.98 337.47C238.955 338.781 243.142 339.324 247.32 339.07C244.093 339.069 240.889 338.528 237.84 337.47V337.47Z" fill="black"/>
<path id="Vector_89" opacity="0.1" d="M218.9 332.28C218.9 332.5 218.81 332.72 218.76 332.94C219.958 333.118 221.174 333.152 222.38 333.04C221.195 332.917 220.028 332.662 218.9 332.28V332.28Z" fill="black"/>
<path id="Vector_90" d="M339.41 375.19C338.587 375.802 337.992 376.671 337.72 377.66C337.657 377.864 337.661 378.083 337.731 378.284C337.801 378.486 337.934 378.659 338.11 378.78C338.331 378.85 338.569 378.85 338.79 378.78C339.897 378.584 340.932 378.097 341.79 377.37C341.45 377.551 341.148 377.795 340.9 378.09C340.778 378.239 340.702 378.421 340.681 378.612C340.659 378.804 340.694 378.998 340.78 379.17C340.903 379.319 341.055 379.441 341.227 379.529C341.399 379.617 341.587 379.668 341.78 379.68C343.207 379.939 344.674 379.871 346.07 379.48C345.419 379.722 344.817 380.078 344.29 380.53C344.028 380.761 343.82 381.046 343.68 381.365C343.54 381.685 343.472 382.031 343.48 382.38C343.481 382.511 343.51 382.641 343.565 382.76C343.621 382.879 343.701 382.984 343.8 383.07C343.945 383.162 344.109 383.22 344.28 383.24C345.603 383.472 346.957 383.472 348.28 383.24C348.621 383.226 348.954 383.128 349.247 382.953C349.54 382.779 349.785 382.533 349.96 382.24C350.028 381.909 350.028 381.567 349.961 381.235C349.894 380.904 349.761 380.589 349.57 380.31C348.861 378.784 348.518 377.112 348.57 375.43C348.613 375.09 348.565 374.745 348.43 374.43C348.21 374.125 347.898 373.897 347.54 373.78C346.13 373.16 344.21 372.3 342.64 372.78C341.415 373.363 340.318 374.182 339.41 375.19V375.19Z" fill="#EE8E9E"/>
<g id="svg-hand">
<path id="svg-hand_2" d="M168.24 445.16C168.379 446.448 168.237 447.751 167.822 448.979C167.408 450.207 166.731 451.33 165.84 452.27C164.826 453.248 163.686 454.085 162.45 454.76C161.257 455.577 159.885 456.095 158.45 456.27C156.515 456.207 154.677 455.41 153.31 454.04C149.07 450.32 146.95 444.81 144.99 439.52C142.4 432.52 139.82 425.45 138.71 418.06C137.52 410.14 138.03 401.94 135.76 394.25C137.76 390.25 139.06 385.79 141.35 381.91C142.803 379.598 144.09 377.185 145.2 374.69C147.326 369.378 147.567 363.498 145.88 358.03C146.281 357.769 146.755 357.641 147.233 357.666C147.711 357.692 148.169 357.868 148.54 358.17C149.267 358.794 149.818 359.597 150.14 360.5C151.46 363.585 152.01 366.945 151.74 370.29C151.569 371.095 151.664 371.934 152.01 372.68C152.32 373.063 152.719 373.363 153.173 373.555C153.626 373.747 154.12 373.824 154.61 373.78C156.649 373.679 158.666 373.313 160.61 372.69C166.651 371.149 172.908 370.631 179.12 371.16C180.372 371.197 181.602 371.497 182.73 372.04C183.288 372.318 183.757 372.746 184.086 373.276C184.414 373.806 184.589 374.417 184.59 375.04L169.79 377.21C168.676 377.272 167.6 377.639 166.68 378.27C166.237 378.604 165.945 379.1 165.866 379.648C165.787 380.197 165.929 380.755 166.26 381.2C166.573 381.456 166.907 381.683 167.26 381.88C167.639 382.167 167.945 382.541 168.152 382.969C168.358 383.398 168.46 383.87 168.448 384.346C168.437 384.822 168.312 385.288 168.084 385.706C167.857 386.124 167.533 386.482 167.14 386.75C166.768 386.922 166.429 387.159 166.14 387.45C165.54 388.26 166.34 389.33 166.6 390.31C166.712 391.033 166.602 391.773 166.284 392.432C165.966 393.091 165.456 393.638 164.82 394C163.536 394.704 162.138 395.175 160.69 395.39C157.784 396.06 154.953 397.021 152.24 398.26C151.357 398.575 150.59 399.15 150.04 399.91C149.31 401.15 149.79 402.71 150.29 404.06L154.15 414.44C154.75 416.07 155.36 417.7 156.15 419.27C157.15 421.27 158.34 423.21 159.35 425.27C160.36 427.33 161.02 429.12 161.76 431.08C163.69 436.37 167.58 439.57 168.24 445.16Z" fill="#EE8E9E"/>
</g>
<g id="svg-logo">
<path id="Vector_91" d="M347.13 378.59H302.59V421.71H347.13V378.59Z" fill="#7CFCFF"/>
<path id="Vector_92" d="M454.56 300H410.02V343.12H454.56V300Z" fill="#FF69B4"/>
<path id="Vector_93" d="M586.17 305.91H541.63V349.03H586.17V305.91Z" fill="#FFFFA5"/>
<path id="Vector_94" d="M934.13 388.59H889.59V431.71H934.13V388.59Z" fill="#7CFCFF"/>
<path id="Vector_95" d="M899.13 378.59H854.59V421.71H899.13V378.59Z" fill="#7CFCFF"/>
<path id="Vector_96" d="M791.54 307H747V350.12H791.54V307Z" fill="#FF69B4"/>
<path id="V" d="M424.587 311.92C425.641 311.238 426.767 310.711 427.966 310.339C429.185 309.946 430.374 309.75 431.531 309.75C431.676 309.75 431.831 309.76 431.996 309.781C432.182 309.781 432.44 309.791 432.771 309.812L433.05 328.877L439.56 309.905H441.73L433.112 333H428.4V311.827C426.788 312.323 425.569 313.15 424.742 314.307C423.936 315.464 423.533 316.932 423.533 318.709C423.533 319.102 423.554 319.443 423.595 319.732C423.657 320.021 423.75 320.3 423.874 320.569C423.915 320.652 423.936 320.714 423.936 320.755C423.957 320.776 423.967 320.796 423.967 320.817C422.81 320.817 421.962 320.579 421.425 320.104C420.908 319.608 420.65 318.843 420.65 317.81C420.65 316.777 420.991 315.743 421.673 314.71C422.376 313.677 423.347 312.747 424.587 311.92Z" fill="black"/>
<path id="E" d="M323.497 402.451C323.497 403.443 323.745 404.218 324.241 404.776C324.757 405.313 325.491 405.582 326.442 405.582C327.537 405.582 328.643 405.282 329.759 404.683C330.875 404.084 331.681 403.329 332.177 402.42L332.89 402.73C332.125 404.487 330.895 405.902 329.201 406.977C327.527 408.031 325.729 408.558 323.807 408.558C322.029 408.558 320.634 408.062 319.622 407.07C318.609 406.078 318.103 404.755 318.103 403.102C318.103 401.304 318.65 399.62 319.746 398.049C320.841 396.458 322.205 395.466 323.838 395.073C323.218 394.639 322.742 394.102 322.412 393.461C322.102 392.82 321.947 392.118 321.947 391.353C321.947 389.617 322.608 388.077 323.931 386.734C325.274 385.37 326.876 384.688 328.736 384.688C330.058 384.688 331.123 385.039 331.929 385.742C332.755 386.445 333.169 387.385 333.169 388.563C333.169 389.472 332.941 390.237 332.487 390.857C332.053 391.477 331.515 391.787 330.875 391.787C330.585 391.787 330.317 391.715 330.069 391.57C329.841 391.425 329.624 391.219 329.418 390.95C329.79 390.826 330.11 390.495 330.379 389.958C330.647 389.4 330.782 388.832 330.782 388.253C330.782 387.716 330.627 387.292 330.317 386.982C330.007 386.672 329.593 386.517 329.077 386.517C328.209 386.517 327.465 386.961 326.845 387.85C326.225 388.718 325.915 389.731 325.915 390.888C325.915 391.921 326.183 392.81 326.721 393.554C327.279 394.277 328.054 394.773 329.046 395.042C327.516 395.393 326.204 396.323 325.109 397.832C324.034 399.32 323.497 400.86 323.497 402.451Z" fill="black"/>
<path id="E_2" d="M562.997 334.451C562.997 335.443 563.245 336.218 563.741 336.776C564.257 337.313 564.991 337.582 565.942 337.582C567.037 337.582 568.143 337.282 569.259 336.683C570.375 336.084 571.181 335.329 571.677 334.42L572.39 334.73C571.625 336.487 570.395 337.902 568.701 338.977C567.027 340.031 565.229 340.558 563.307 340.558C561.529 340.558 560.134 340.062 559.122 339.07C558.109 338.078 557.603 336.755 557.603 335.102C557.603 333.304 558.15 331.62 559.246 330.049C560.341 328.458 561.705 327.466 563.338 327.073C562.718 326.639 562.242 326.102 561.912 325.461C561.602 324.82 561.447 324.118 561.447 323.353C561.447 321.617 562.108 320.077 563.431 318.734C564.774 317.37 566.376 316.688 568.236 316.688C569.558 316.688 570.623 317.039 571.429 317.742C572.255 318.445 572.669 319.385 572.669 320.563C572.669 321.472 572.441 322.237 571.987 322.857C571.553 323.477 571.015 323.787 570.375 323.787C570.085 323.787 569.817 323.715 569.569 323.57C569.341 323.425 569.124 323.219 568.918 322.95C569.29 322.826 569.61 322.495 569.879 321.958C570.147 321.4 570.282 320.832 570.282 320.253C570.282 319.716 570.127 319.292 569.817 318.982C569.507 318.672 569.093 318.517 568.577 318.517C567.709 318.517 566.965 318.961 566.345 319.85C565.725 320.718 565.415 321.731 565.415 322.888C565.415 323.921 565.683 324.81 566.221 325.554C566.779 326.277 567.554 326.773 568.546 327.042C567.016 327.393 565.704 328.323 564.609 329.832C563.534 331.32 562.997 332.86 562.997 334.451Z" fill="black"/>
<path id="N" d="M768.988 317.184L771.437 333.614L774.816 316.812H779.28L774.351 340H770.6L767.965 323.787L764.524 340H760.06L764.524 318.951C763.14 319.53 762.075 320.398 761.331 321.555C760.587 322.712 760.215 324.097 760.215 325.709C760.215 326.102 760.236 326.443 760.277 326.732C760.339 327.021 760.432 327.3 760.556 327.569C760.598 327.652 760.618 327.714 760.618 327.755C760.639 327.776 760.649 327.796 760.649 327.817C759.492 327.817 758.645 327.579 758.107 327.104C757.591 326.608 757.332 325.843 757.332 324.81C757.332 323.818 757.58 322.816 758.076 321.803C758.572 320.77 759.254 319.86 760.122 319.075C760.949 318.31 761.869 317.732 762.881 317.339C763.915 316.946 764.989 316.75 766.105 316.75C766.911 316.75 767.511 316.791 767.903 316.874C768.317 316.936 768.678 317.039 768.988 317.184Z" fill="black"/>
<path id="T" d="M884.731 390.494C885.351 390.494 885.981 390.442 886.622 390.339C887.262 390.215 887.831 390.05 888.327 389.843C888.306 391.166 887.965 392.158 887.304 392.819C886.663 393.46 885.712 393.78 884.452 393.78C883.852 393.78 883.181 393.728 882.437 393.625C881.713 393.522 880.783 393.346 879.647 393.098L875.369 413H870.905L875.307 392.478H874.935C872.93 392.478 871.452 392.995 870.502 394.028C869.572 395.041 869.107 396.611 869.107 398.74C869.107 399.133 869.127 399.474 869.169 399.763C869.231 400.052 869.324 400.331 869.448 400.6C869.489 400.683 869.51 400.745 869.51 400.786C869.53 400.807 869.541 400.827 869.541 400.848C868.383 400.848 867.536 400.61 866.999 400.135C866.482 399.639 866.224 398.874 866.224 397.841C866.224 395.382 867.143 393.429 868.983 391.982C870.843 390.515 873.447 389.781 876.795 389.781C877.477 389.781 878.128 389.812 878.748 389.874C879.388 389.915 880.205 390.008 881.197 390.153C882.065 390.298 882.736 390.391 883.212 390.432C883.708 390.473 884.214 390.494 884.731 390.494Z" fill="black"/>
<path id="R" d="M908.569 420H904.105L908.321 400.284L912.909 399.664L911.39 406.825H911.638C912.816 406.825 913.839 406.257 914.707 405.12C915.596 403.983 916.04 402.754 916.04 401.431C916.04 400.418 915.74 399.623 915.141 399.044C914.542 398.465 913.705 398.176 912.63 398.176C910.067 398.176 908.032 398.858 906.523 400.222C905.014 401.565 904.26 403.394 904.26 405.709C904.26 406.102 904.281 406.443 904.322 406.732C904.384 407.021 904.477 407.3 904.601 407.569C904.642 407.652 904.663 407.714 904.663 407.755C904.684 407.776 904.694 407.796 904.694 407.817C903.537 407.817 902.689 407.579 902.152 407.104C901.635 406.608 901.377 405.843 901.377 404.81C901.377 403.777 901.718 402.743 902.4 401.71C903.103 400.677 904.074 399.747 905.314 398.92C906.368 398.238 907.494 397.711 908.693 397.339C909.912 396.946 911.101 396.75 912.258 396.75C914.428 396.75 916.143 397.205 917.404 398.114C918.665 399.023 919.295 400.222 919.295 401.71C919.295 402.702 918.985 403.684 918.365 404.655C917.766 405.626 916.96 406.412 915.947 407.011C916.67 407.218 917.208 407.579 917.559 408.096C917.91 408.592 918.086 409.264 918.086 410.111C918.086 410.586 918.034 411.134 917.931 411.754C917.828 412.353 917.6 413.273 917.249 414.513C916.96 415.567 916.774 416.321 916.691 416.776C916.608 417.231 916.567 417.623 916.567 417.954C916.567 418.429 916.67 418.853 916.877 419.225C917.104 419.597 917.404 419.855 917.776 420C917.177 420.165 916.608 420.289 916.071 420.372C915.554 420.475 915.1 420.527 914.707 420.527C913.901 420.527 913.291 420.351 912.878 420C912.485 419.669 912.289 419.153 912.289 418.45C912.289 418.099 912.341 417.675 912.444 417.179C912.547 416.662 912.754 415.815 913.064 414.637C913.415 413.356 913.643 412.426 913.746 411.847C913.87 411.248 913.932 410.731 913.932 410.297C913.932 409.594 913.777 409.067 913.467 408.716C913.157 408.365 912.692 408.189 912.072 408.189C911.989 408.189 911.896 408.199 911.793 408.22C911.71 408.22 911.462 408.251 911.049 408.313L908.569 420Z" fill="black"/>
</g>
<path id="NISHANT" d="M183.859 97.6885C183.838 97.7959 183.784 97.8783 183.698 97.9355C183.612 97.9857 183.523 98.0107 183.43 98.0107C183.322 98.0107 183.233 97.9821 183.161 97.9248C183.097 97.8604 183.064 97.7673 183.064 97.6455L183.193 95.1963C183.208 94.9528 183.215 94.7165 183.215 94.4873C183.222 94.2581 183.226 94.0397 183.226 93.832C183.226 93.4668 183.215 93.1696 183.193 92.9404C183.143 92.8617 183.086 92.7936 183.021 92.7363C182.957 92.6719 182.925 92.5895 182.925 92.4893C182.925 92.2959 183.075 92.1992 183.376 92.1992C183.505 92.1992 183.605 92.2243 183.677 92.2744C183.748 92.3245 183.834 92.3962 183.935 92.4893L183.967 92.5322C184.046 92.6969 184.174 92.9297 184.354 93.2305C184.54 93.5241 184.751 93.8535 184.987 94.2188C185.224 94.5768 185.467 94.9492 185.718 95.3359C185.976 95.7227 186.215 96.0843 186.438 96.4209C186.459 95.7549 186.47 95.0602 186.47 94.3369C186.47 93.9788 186.466 93.6279 186.459 93.2842C186.459 92.9333 186.452 92.5967 186.438 92.2744C186.438 92.1885 186.477 92.124 186.556 92.0811C186.634 92.0309 186.724 92.0059 186.824 92.0059C186.91 92.0059 186.993 92.0238 187.071 92.0596C187.15 92.0954 187.204 92.1527 187.232 92.2314C187.247 92.7686 187.254 93.2627 187.254 93.7139C187.261 94.1579 187.265 94.5947 187.265 95.0244C187.265 95.4541 187.25 95.8838 187.222 96.3135C187.2 96.736 187.182 97.1943 187.168 97.6885C187.146 97.8102 187.096 97.8997 187.018 97.957C186.946 98.0143 186.871 98.043 186.792 98.043C186.713 98.043 186.645 98.0286 186.588 98C186.531 97.9785 186.473 97.9248 186.416 97.8389C186.23 97.5309 186.029 97.2158 185.814 96.8936C185.607 96.5713 185.396 96.2526 185.181 95.9375C184.973 95.6224 184.769 95.3145 184.568 95.0137C184.368 94.7057 184.182 94.4193 184.01 94.1543C184.01 94.5052 184.006 94.8561 183.999 95.207C183.992 95.5579 183.981 95.891 183.967 96.2061C183.952 96.514 183.935 96.7969 183.913 97.0547C183.899 97.3053 183.881 97.5166 183.859 97.6885ZM188.758 92.4893C188.701 92.4105 188.672 92.3389 188.672 92.2744C188.672 92.167 188.722 92.0739 188.822 91.9951C188.923 91.9163 189.026 91.877 189.134 91.877C189.234 91.877 189.331 91.9271 189.424 92.0273C189.524 92.1276 189.614 92.2493 189.692 92.3926C189.778 92.5286 189.854 92.6719 189.918 92.8223C189.99 92.9655 190.047 93.0837 190.09 93.1768C190.118 93.5635 190.14 93.9824 190.154 94.4336C190.176 94.8848 190.187 95.3359 190.187 95.7871C190.187 96.2383 190.179 96.6644 190.165 97.0654C190.151 97.4665 190.126 97.8031 190.09 98.0752C190.076 98.1898 190.029 98.2721 189.95 98.3223C189.879 98.3724 189.803 98.3975 189.725 98.3975C189.603 98.3975 189.492 98.3652 189.392 98.3008C189.299 98.2363 189.252 98.1468 189.252 98.0322C189.252 97.7314 189.263 97.3805 189.284 96.9795C189.313 96.5785 189.327 96.1595 189.327 95.7227C189.327 95.3073 189.324 94.8955 189.316 94.4873C189.309 94.0791 189.295 93.7139 189.273 93.3916C189.209 93.2555 189.134 93.1087 189.048 92.9512C188.962 92.7936 188.865 92.6396 188.758 92.4893ZM191.852 94.6377C191.708 94.5016 191.608 94.3584 191.551 94.208C191.501 94.0505 191.476 93.8929 191.476 93.7354C191.476 93.4059 191.533 93.1302 191.647 92.9082C191.769 92.6862 191.916 92.5072 192.088 92.3711C192.267 92.235 192.46 92.1383 192.668 92.0811C192.876 92.0238 193.069 91.9951 193.248 91.9951C193.42 91.9951 193.588 92.0202 193.753 92.0703C193.925 92.1133 194.082 92.1777 194.226 92.2637C194.376 92.3424 194.505 92.4427 194.612 92.5645C194.727 92.679 194.816 92.8044 194.881 92.9404C194.881 92.9548 194.881 92.9691 194.881 92.9834C194.888 92.9906 194.892 93.0013 194.892 93.0156C194.892 93.1445 194.834 93.2448 194.72 93.3164C194.612 93.3809 194.519 93.4131 194.44 93.4131C194.347 93.4131 194.279 93.3773 194.236 93.3057C194.122 93.141 193.968 93.0156 193.774 92.9297C193.588 92.8438 193.391 92.8008 193.184 92.8008C193.083 92.8079 192.983 92.833 192.883 92.876C192.783 92.9118 192.689 92.9691 192.604 93.0479C192.518 93.1195 192.446 93.2126 192.389 93.3271C192.339 93.4417 192.313 93.5778 192.313 93.7354C192.313 93.9359 192.399 94.1113 192.571 94.2617C192.75 94.4049 192.962 94.5446 193.205 94.6807C193.456 94.8167 193.714 94.96 193.979 95.1104C194.251 95.2607 194.48 95.4398 194.666 95.6475C194.824 95.8265 194.935 96.0199 194.999 96.2275C195.071 96.4352 195.106 96.6322 195.106 96.8184C195.106 97.1406 195.038 97.402 194.902 97.6025C194.773 97.8031 194.612 97.9606 194.419 98.0752C194.233 98.1898 194.029 98.2686 193.807 98.3115C193.592 98.3545 193.398 98.376 193.227 98.376C193.012 98.376 192.8 98.3509 192.593 98.3008C192.392 98.2507 192.213 98.1826 192.056 98.0967C191.898 98.0179 191.769 97.932 191.669 97.8389C191.576 97.7386 191.529 97.6383 191.529 97.5381C191.529 97.4378 191.558 97.3376 191.615 97.2373C191.68 97.1299 191.758 97.0762 191.852 97.0762C191.88 97.0762 191.916 97.0869 191.959 97.1084C192.238 97.3161 192.478 97.4486 192.679 97.5059C192.879 97.5632 193.044 97.5918 193.173 97.5918C193.495 97.5918 193.757 97.513 193.957 97.3555C194.158 97.1979 194.258 96.9831 194.258 96.7109C194.258 96.5462 194.211 96.3994 194.118 96.2705C194.025 96.1416 193.914 96.027 193.785 95.9268C193.656 95.8265 193.52 95.7406 193.377 95.6689C193.234 95.5973 193.112 95.5365 193.012 95.4863C192.84 95.4004 192.657 95.2965 192.464 95.1748C192.278 95.0531 192.074 94.874 191.852 94.6377ZM195.869 93.1768C195.819 93.1195 195.794 93.0479 195.794 92.9619C195.794 92.8545 195.833 92.7614 195.912 92.6826C195.991 92.5967 196.091 92.5537 196.213 92.5537C196.32 92.5537 196.417 92.5967 196.503 92.6826C196.596 92.7686 196.678 92.876 196.75 93.0049C196.829 93.1338 196.893 93.2734 196.943 93.4238C197.001 93.5742 197.044 93.7139 197.072 93.8428C197.108 94.0075 197.133 94.1973 197.147 94.4121C197.162 94.627 197.18 94.8561 197.201 95.0996L198.2 95.0674C198.386 95.0602 198.573 95.0566 198.759 95.0566C198.945 95.0495 199.12 95.0387 199.285 95.0244C199.264 94.7451 199.246 94.498 199.231 94.2832C199.217 94.0612 199.192 93.8535 199.156 93.6602C199.128 93.4596 199.085 93.2555 199.027 93.0479C198.977 92.8402 198.898 92.6038 198.791 92.3389C198.77 92.2959 198.759 92.2493 198.759 92.1992C198.759 92.0775 198.805 91.9808 198.898 91.9092C198.992 91.8304 199.095 91.791 199.21 91.791C199.36 91.791 199.482 91.8626 199.575 92.0059C199.675 92.1491 199.751 92.3138 199.801 92.5C199.858 92.679 199.897 92.8509 199.919 93.0156C199.948 93.1732 199.965 93.2699 199.973 93.3057C199.994 93.4131 200.012 93.5563 200.026 93.7354C200.048 93.9144 200.062 94.1149 200.069 94.3369C200.084 94.5589 200.094 94.7952 200.102 95.0459C200.109 95.2894 200.112 95.54 200.112 95.7979C200.112 96.2061 200.105 96.6035 200.091 96.9902C200.084 97.377 200.066 97.7171 200.037 98.0107C200.023 98.1325 199.976 98.2184 199.897 98.2686C199.826 98.3258 199.751 98.3545 199.672 98.3545C199.572 98.3545 199.475 98.3258 199.382 98.2686C199.289 98.2113 199.242 98.1253 199.242 98.0107C199.242 97.6813 199.253 97.3304 199.274 96.958C199.303 96.5856 199.317 96.2025 199.317 95.8086C199.167 95.8229 198.995 95.8337 198.802 95.8408C198.616 95.8408 198.426 95.8444 198.232 95.8516L197.212 95.8838C197.212 96.2275 197.201 96.5713 197.18 96.915C197.165 97.2588 197.144 97.5739 197.115 97.8604C197.101 97.9821 197.051 98.0752 196.965 98.1396C196.879 98.2113 196.786 98.2471 196.686 98.2471C196.585 98.2471 196.499 98.2184 196.428 98.1611C196.356 98.111 196.32 98.0322 196.32 97.9248C196.32 97.5596 196.331 97.18 196.353 96.7861C196.381 96.3923 196.396 96.002 196.396 95.6152C196.396 95.3288 196.385 95.0566 196.363 94.7988C196.349 94.541 196.313 94.3011 196.256 94.0791L196.127 93.6709C196.105 93.5993 196.07 93.5241 196.02 93.4453C195.977 93.3594 195.926 93.2699 195.869 93.1768ZM202.787 92.167C202.844 92.0667 202.916 92.0059 203.002 91.9844C203.088 91.9557 203.17 91.9414 203.249 91.9414C203.371 91.9414 203.514 92.1133 203.679 92.457C203.843 92.8008 204.015 93.2484 204.194 93.7998C204.381 94.3512 204.567 94.9743 204.753 95.6689C204.939 96.3636 205.107 97.0654 205.258 97.7744C205.258 97.7887 205.258 97.8031 205.258 97.8174C205.265 97.8245 205.269 97.8353 205.269 97.8496C205.269 97.9642 205.222 98.0609 205.129 98.1396C205.036 98.2184 204.928 98.2578 204.807 98.2578C204.728 98.2578 204.66 98.2327 204.603 98.1826C204.545 98.1396 204.506 98.0609 204.484 97.9463C204.449 97.7386 204.388 97.4844 204.302 97.1836C204.216 96.8828 204.133 96.5605 204.055 96.2168C203.897 96.2311 203.711 96.2454 203.496 96.2598C203.288 96.2669 203.074 96.2705 202.852 96.2705C202.737 96.2705 202.626 96.2705 202.519 96.2705C202.418 96.2633 202.318 96.2562 202.218 96.249C202.103 96.6143 201.999 96.9437 201.906 97.2373C201.813 97.5309 201.742 97.7673 201.691 97.9463C201.656 98.068 201.602 98.1504 201.53 98.1934C201.466 98.2363 201.394 98.2578 201.315 98.2578C201.215 98.2578 201.118 98.2184 201.025 98.1396C200.939 98.068 200.896 97.9821 200.896 97.8818C200.896 97.8675 200.904 97.8317 200.918 97.7744L201.81 94.9062C201.896 94.6198 201.985 94.3369 202.078 94.0576C202.171 93.7712 202.261 93.5062 202.347 93.2627C202.433 93.0192 202.511 92.8044 202.583 92.6182C202.662 92.4248 202.73 92.2744 202.787 92.167ZM203.195 93.2949C203.081 93.6029 202.959 93.9502 202.83 94.3369C202.701 94.7236 202.576 95.1104 202.454 95.4971C202.533 95.4971 202.615 95.5007 202.701 95.5078C202.787 95.5078 202.873 95.5078 202.959 95.5078C203.281 95.5078 203.578 95.4971 203.851 95.4756C203.743 95.0889 203.632 94.7057 203.518 94.3262C203.403 93.9466 203.296 93.6029 203.195 93.2949ZM206.955 97.6885C206.934 97.7959 206.88 97.8783 206.794 97.9355C206.708 97.9857 206.618 98.0107 206.525 98.0107C206.418 98.0107 206.328 97.9821 206.257 97.9248C206.192 97.8604 206.16 97.7673 206.16 97.6455L206.289 95.1963C206.303 94.9528 206.311 94.7165 206.311 94.4873C206.318 94.2581 206.321 94.0397 206.321 93.832C206.321 93.4668 206.311 93.1696 206.289 92.9404C206.239 92.8617 206.182 92.7936 206.117 92.7363C206.053 92.6719 206.021 92.5895 206.021 92.4893C206.021 92.2959 206.171 92.1992 206.472 92.1992C206.601 92.1992 206.701 92.2243 206.772 92.2744C206.844 92.3245 206.93 92.3962 207.03 92.4893L207.062 92.5322C207.141 92.6969 207.27 92.9297 207.449 93.2305C207.635 93.5241 207.847 93.8535 208.083 94.2188C208.319 94.5768 208.563 94.9492 208.813 95.3359C209.071 95.7227 209.311 96.0843 209.533 96.4209C209.555 95.7549 209.565 95.0602 209.565 94.3369C209.565 93.9788 209.562 93.6279 209.555 93.2842C209.555 92.9333 209.548 92.5967 209.533 92.2744C209.533 92.1885 209.573 92.124 209.651 92.0811C209.73 92.0309 209.82 92.0059 209.92 92.0059C210.006 92.0059 210.088 92.0238 210.167 92.0596C210.246 92.0954 210.299 92.1527 210.328 92.2314C210.342 92.7686 210.35 93.2627 210.35 93.7139C210.357 94.1579 210.36 94.5947 210.36 95.0244C210.36 95.4541 210.346 95.8838 210.317 96.3135C210.296 96.736 210.278 97.1943 210.264 97.6885C210.242 97.8102 210.192 97.8997 210.113 97.957C210.042 98.0143 209.966 98.043 209.888 98.043C209.809 98.043 209.741 98.0286 209.684 98C209.626 97.9785 209.569 97.9248 209.512 97.8389C209.326 97.5309 209.125 97.2158 208.91 96.8936C208.702 96.5713 208.491 96.2526 208.276 95.9375C208.069 95.6224 207.865 95.3145 207.664 95.0137C207.464 94.7057 207.277 94.4193 207.105 94.1543C207.105 94.5052 207.102 94.8561 207.095 95.207C207.088 95.5579 207.077 95.891 207.062 96.2061C207.048 96.514 207.03 96.7969 207.009 97.0547C206.994 97.3053 206.977 97.5166 206.955 97.6885ZM211.531 92.167C211.746 92.2028 212.025 92.2279 212.369 92.2422C212.713 92.2565 213.067 92.2637 213.433 92.2637C213.798 92.2637 214.145 92.2529 214.475 92.2314C214.804 92.2028 215.069 92.167 215.27 92.124C215.363 92.0309 215.456 91.9629 215.549 91.9199C215.642 91.877 215.749 91.8376 215.871 91.8018C215.957 91.8232 216.032 91.8913 216.097 92.0059C216.168 92.1133 216.204 92.2279 216.204 92.3496C216.204 92.4714 216.183 92.5752 216.14 92.6611C216.097 92.7399 216.021 92.79 215.914 92.8115C215.663 92.8688 215.384 92.9189 215.076 92.9619C214.768 93.0049 214.453 93.0335 214.131 93.0479V94.2188C214.131 94.5768 214.131 94.9564 214.131 95.3574C214.131 95.7585 214.127 96.138 214.12 96.4961C214.12 96.8542 214.117 97.1729 214.109 97.4521C214.102 97.7243 214.095 97.9105 214.088 98.0107C214.066 98.0967 214.009 98.1576 213.916 98.1934C213.83 98.2363 213.737 98.2578 213.637 98.2578C213.536 98.2578 213.443 98.2327 213.357 98.1826C213.271 98.1325 213.229 98.068 213.229 97.9893C213.229 97.932 213.229 97.8424 213.229 97.7207C213.229 97.5918 213.232 97.4235 213.239 97.2158L213.304 94.2832C213.311 94.0326 213.314 93.807 213.314 93.6064C213.314 93.3988 213.314 93.2197 213.314 93.0693C212.992 93.0693 212.699 93.0693 212.434 93.0693C212.176 93.0622 211.95 93.0443 211.757 93.0156C211.571 92.9798 211.424 92.9261 211.316 92.8545C211.216 92.7829 211.166 92.6755 211.166 92.5322C211.166 92.432 211.198 92.346 211.263 92.2744C211.327 92.2028 211.417 92.167 211.531 92.167Z" fill="white"/>
</g>
</g>
</g>
<defs>
<clipPath id="clip0">
<rect x="47" y="29" width="1132.39" height="767.13" fill="white"/>
</clipPath>
</defs>
</svg>
